<mxfile host="65bd71144e">
    <diagram name="Page-1" id="j1DX1GtIplwhxsKWa-3a">
        <mxGraphModel dx="5093" dy="1004" grid="1" gridSize="10" guides="1" tooltips="1" connect="1" arrows="1" fold="1" page="1" pageScale="1" pageWidth="850" pageHeight="1100" math="0" shadow="0">
            <root>
                <mxCell id="0"/>
                <mxCell id="1" parent="0"/>
                <mxCell id="47kRf0ks_VbpYgO-O93J-1" value="" style="rounded=0;whiteSpace=wrap;html=1;container=1;fillColor=none;recursiveResize=0;pointerEvents=0;" parent="1" vertex="1">
                    <mxGeometry x="50" y="130" width="1450" height="1100" as="geometry"/>
                </mxCell>
                <mxCell id="47kRf0ks_VbpYgO-O93J-2" value="Arch for gaze-v3 demo pipeline" style="text;html=1;align=center;verticalAlign=middle;whiteSpace=wrap;rounded=0;" parent="47kRf0ks_VbpYgO-O93J-1" vertex="1">
                    <mxGeometry x="20" y="20" width="180" height="30" as="geometry"/>
                </mxCell>
                <mxCell id="47kRf0ks_VbpYgO-O93J-4" value="" style="rounded=0;whiteSpace=wrap;html=1;container=1;fillColor=none;recursiveResize=0;pointerEvents=0;" parent="47kRf0ks_VbpYgO-O93J-1" vertex="1">
                    <mxGeometry x="30" y="70" width="510" height="390" as="geometry"/>
                </mxCell>
                <mxCell id="92" style="edgeStyle=none;html=1;entryX=0.5;entryY=0;entryDx=0;entryDy=0;fontStyle=1" parent="47kRf0ks_VbpYgO-O93J-4" source="47kRf0ks_VbpYgO-O93J-5" target="xl_rmhWgNXav408sLRde-6" edge="1">
                    <mxGeometry relative="1" as="geometry">
                        <Array as="points">
                            <mxPoint x="425" y="30"/>
                        </Array>
                    </mxGeometry>
                </mxCell>
                <mxCell id="47kRf0ks_VbpYgO-O93J-5" value="cam per frame" style="text;html=1;align=center;verticalAlign=middle;whiteSpace=wrap;rounded=0;" parent="47kRf0ks_VbpYgO-O93J-4" vertex="1">
                    <mxGeometry x="20" y="10" width="120" height="20" as="geometry"/>
                </mxCell>
                <mxCell id="47kRf0ks_VbpYgO-O93J-12" style="edgeStyle=orthogonalEdgeStyle;rounded=0;orthogonalLoop=1;jettySize=auto;html=1;entryX=0.5;entryY=0;entryDx=0;entryDy=0;fontStyle=1" parent="47kRf0ks_VbpYgO-O93J-4" source="47kRf0ks_VbpYgO-O93J-10" target="47kRf0ks_VbpYgO-O93J-11" edge="1">
                    <mxGeometry relative="1" as="geometry"/>
                </mxCell>
                <mxCell id="HzCd7pYkylz3Iy_VyhTi-16" value="More filters" style="edgeLabel;html=1;align=center;verticalAlign=middle;resizable=0;points=[];" parent="47kRf0ks_VbpYgO-O93J-12" vertex="1" connectable="0">
                    <mxGeometry x="-0.2238" relative="1" as="geometry">
                        <mxPoint as="offset"/>
                    </mxGeometry>
                </mxCell>
                <mxCell id="47kRf0ks_VbpYgO-O93J-10" value="face_detections, body_detections" style="text;html=1;align=center;verticalAlign=middle;whiteSpace=wrap;rounded=0;" parent="47kRf0ks_VbpYgO-O93J-4" vertex="1">
                    <mxGeometry x="20" y="70" width="120" height="20" as="geometry"/>
                </mxCell>
                <mxCell id="47kRf0ks_VbpYgO-O93J-14" style="edgeStyle=orthogonalEdgeStyle;rounded=0;orthogonalLoop=1;jettySize=auto;html=1;fontStyle=1" parent="47kRf0ks_VbpYgO-O93J-4" source="47kRf0ks_VbpYgO-O93J-11" target="47kRf0ks_VbpYgO-O93J-13" edge="1">
                    <mxGeometry relative="1" as="geometry"/>
                </mxCell>
                <mxCell id="47kRf0ks_VbpYgO-O93J-27" style="edgeStyle=orthogonalEdgeStyle;rounded=0;orthogonalLoop=1;jettySize=auto;html=1;entryX=0.5;entryY=0;entryDx=0;entryDy=0;fontStyle=1" parent="47kRf0ks_VbpYgO-O93J-4" source="47kRf0ks_VbpYgO-O93J-11" target="47kRf0ks_VbpYgO-O93J-26" edge="1">
                    <mxGeometry relative="1" as="geometry"/>
                </mxCell>
                <mxCell id="88" style="edgeStyle=none;html=1;entryX=0.5;entryY=0;entryDx=0;entryDy=0;fontStyle=1" parent="47kRf0ks_VbpYgO-O93J-4" source="47kRf0ks_VbpYgO-O93J-11" target="47kRf0ks_VbpYgO-O93J-15" edge="1">
                    <mxGeometry relative="1" as="geometry"/>
                </mxCell>
                <mxCell id="47kRf0ks_VbpYgO-O93J-11" value="sv trackers" style="text;html=1;align=center;verticalAlign=middle;whiteSpace=wrap;rounded=0;" parent="47kRf0ks_VbpYgO-O93J-4" vertex="1">
                    <mxGeometry x="20" y="230" width="120" height="20" as="geometry"/>
                </mxCell>
                <mxCell id="47kRf0ks_VbpYgO-O93J-13" value="body detections with trackid" style="text;html=1;align=center;verticalAlign=middle;whiteSpace=wrap;rounded=0;" parent="47kRf0ks_VbpYgO-O93J-4" vertex="1">
                    <mxGeometry x="30" y="290" width="130" height="30" as="geometry"/>
                </mxCell>
                <mxCell id="47kRf0ks_VbpYgO-O93J-15" value="body and face association with trackid" style="text;html=1;align=center;verticalAlign=middle;whiteSpace=wrap;rounded=0;" parent="47kRf0ks_VbpYgO-O93J-4" vertex="1">
                    <mxGeometry x="180" y="290" width="130" height="30" as="geometry"/>
                </mxCell>
                <mxCell id="47kRf0ks_VbpYgO-O93J-26" value="all tracked ids" style="text;html=1;align=center;verticalAlign=middle;whiteSpace=wrap;rounded=0;" parent="47kRf0ks_VbpYgO-O93J-4" vertex="1">
                    <mxGeometry x="360" y="290" width="110" height="30" as="geometry"/>
                </mxCell>
                <mxCell id="HzCd7pYkylz3Iy_VyhTi-18" style="edgeStyle=orthogonalEdgeStyle;rounded=0;orthogonalLoop=1;jettySize=auto;html=1;fontStyle=1" parent="47kRf0ks_VbpYgO-O93J-4" source="HzCd7pYkylz3Iy_VyhTi-17" target="47kRf0ks_VbpYgO-O93J-10" edge="1">
                    <mxGeometry relative="1" as="geometry"/>
                </mxCell>
                <mxCell id="HzCd7pYkylz3Iy_VyhTi-17" value="config.gaze.score_threshold" style="text;html=1;align=center;verticalAlign=middle;whiteSpace=wrap;rounded=0;" parent="47kRf0ks_VbpYgO-O93J-4" vertex="1">
                    <mxGeometry x="190" y="65" width="180" height="30" as="geometry"/>
                </mxCell>
                <mxCell id="xl_rmhWgNXav408sLRde-6" value="image" style="text;html=1;align=center;verticalAlign=middle;whiteSpace=wrap;rounded=0;" parent="47kRf0ks_VbpYgO-O93J-4" vertex="1">
                    <mxGeometry x="360" y="130" width="130" height="30" as="geometry"/>
                </mxCell>
                <mxCell id="47kRf0ks_VbpYgO-O93J-17" value="" style="rounded=0;whiteSpace=wrap;html=1;container=1;fillColor=none;recursiveResize=0;pointerEvents=0;" parent="47kRf0ks_VbpYgO-O93J-1" vertex="1">
                    <mxGeometry x="40" y="570" width="1370" height="490" as="geometry"/>
                </mxCell>
                <mxCell id="101" style="edgeStyle=none;html=1;entryX=0;entryY=0.5;entryDx=0;entryDy=0;fontStyle=1" parent="47kRf0ks_VbpYgO-O93J-17" source="47kRf0ks_VbpYgO-O93J-35" target="100" edge="1">
                    <mxGeometry relative="1" as="geometry"/>
                </mxCell>
                <mxCell id="47kRf0ks_VbpYgO-O93J-35" value="current_tracks" style="text;html=1;align=center;verticalAlign=middle;whiteSpace=wrap;rounded=0;" parent="47kRf0ks_VbpYgO-O93J-17" vertex="1">
                    <mxGeometry x="10" y="260" width="120" height="30" as="geometry"/>
                </mxCell>
                <mxCell id="HzCd7pYkylz3Iy_VyhTi-4" value="" style="rounded=0;whiteSpace=wrap;html=1;container=1;fillColor=none;recursiveResize=0;pointerEvents=0;" parent="47kRf0ks_VbpYgO-O93J-17" vertex="1">
                    <mxGeometry x="780" y="90" width="370" height="270" as="geometry"/>
                </mxCell>
                <mxCell id="HzCd7pYkylz3Iy_VyhTi-5" value="face reid" style="text;html=1;align=center;verticalAlign=middle;whiteSpace=wrap;rounded=0;" parent="HzCd7pYkylz3Iy_VyhTi-4" vertex="1">
                    <mxGeometry x="20" y="10" width="130" height="30" as="geometry"/>
                </mxCell>
                <mxCell id="111" style="edgeStyle=none;html=1;entryX=0.5;entryY=0;entryDx=0;entryDy=0;fontStyle=1" parent="HzCd7pYkylz3Iy_VyhTi-4" source="HzCd7pYkylz3Iy_VyhTi-12" target="109" edge="1">
                    <mxGeometry relative="1" as="geometry"/>
                </mxCell>
                <mxCell id="HzCd7pYkylz3Iy_VyhTi-12" value="FaceReID Processor" style="text;html=1;align=center;verticalAlign=middle;whiteSpace=wrap;rounded=0;" parent="HzCd7pYkylz3Iy_VyhTi-4" vertex="1">
                    <mxGeometry x="20" y="85" width="130" height="30" as="geometry"/>
                </mxCell>
                <mxCell id="113" style="edgeStyle=none;html=1;fontStyle=1" parent="HzCd7pYkylz3Iy_VyhTi-4" source="107" target="HzCd7pYkylz3Iy_VyhTi-12" edge="1">
                    <mxGeometry relative="1" as="geometry"/>
                </mxCell>
                <mxCell id="114" value="search based&lt;br&gt;on score threshold" style="edgeLabel;html=1;align=center;verticalAlign=middle;resizable=0;points=[];" parent="113" vertex="1" connectable="0">
                    <mxGeometry x="-0.05" y="2" relative="1" as="geometry">
                        <mxPoint as="offset"/>
                    </mxGeometry>
                </mxCell>
                <mxCell id="107" value="Vector DB" style="text;html=1;align=center;verticalAlign=middle;whiteSpace=wrap;rounded=0;" parent="HzCd7pYkylz3Iy_VyhTi-4" vertex="1">
                    <mxGeometry x="260" y="80" width="130" height="30" as="geometry"/>
                </mxCell>
                <mxCell id="112" style="edgeStyle=none;html=1;fontStyle=1" parent="HzCd7pYkylz3Iy_VyhTi-4" source="109" target="107" edge="1">
                    <mxGeometry relative="1" as="geometry"/>
                </mxCell>
                <mxCell id="109" value="embedding" style="text;html=1;align=center;verticalAlign=middle;whiteSpace=wrap;rounded=0;" parent="HzCd7pYkylz3Iy_VyhTi-4" vertex="1">
                    <mxGeometry x="20" y="160" width="130" height="30" as="geometry"/>
                </mxCell>
                <mxCell id="90" value="tracks_processor" style="text;html=1;align=center;verticalAlign=middle;whiteSpace=wrap;rounded=0;" parent="47kRf0ks_VbpYgO-O93J-17" vertex="1">
                    <mxGeometry x="20" y="10" width="110" height="30" as="geometry"/>
                </mxCell>
                <mxCell id="97" style="edgeStyle=none;html=1;entryX=0.5;entryY=0;entryDx=0;entryDy=0;fontStyle=1" parent="47kRf0ks_VbpYgO-O93J-17" source="91" target="96" edge="1">
                    <mxGeometry relative="1" as="geometry"/>
                </mxCell>
                <mxCell id="105" style="edgeStyle=none;html=1;entryX=0;entryY=0.25;entryDx=0;entryDy=0;fontStyle=1" parent="47kRf0ks_VbpYgO-O93J-17" source="91" target="HzCd7pYkylz3Iy_VyhTi-12" edge="1">
                    <mxGeometry relative="1" as="geometry"/>
                </mxCell>
                <mxCell id="106" value="img" style="edgeLabel;html=1;align=center;verticalAlign=middle;resizable=0;points=[];" parent="105" vertex="1" connectable="0">
                    <mxGeometry x="-0.4445" y="-1" relative="1" as="geometry">
                        <mxPoint as="offset"/>
                    </mxGeometry>
                </mxCell>
                <mxCell id="91" value="per_frame_update" style="text;html=1;align=center;verticalAlign=middle;whiteSpace=wrap;rounded=0;" parent="47kRf0ks_VbpYgO-O93J-17" vertex="1">
                    <mxGeometry x="210" y="60" width="110" height="30" as="geometry"/>
                </mxCell>
                <mxCell id="93" value="past_tracks" style="text;html=1;align=center;verticalAlign=middle;whiteSpace=wrap;rounded=0;" parent="47kRf0ks_VbpYgO-O93J-17" vertex="1">
                    <mxGeometry x="15" y="320" width="120" height="30" as="geometry"/>
                </mxCell>
                <mxCell id="98" style="edgeStyle=none;html=1;fontStyle=1" parent="47kRf0ks_VbpYgO-O93J-17" source="96" target="47kRf0ks_VbpYgO-O93J-35" edge="1">
                    <mxGeometry relative="1" as="geometry"/>
                </mxCell>
                <mxCell id="99" style="edgeStyle=none;html=1;entryX=1;entryY=0.75;entryDx=0;entryDy=0;fontStyle=1" parent="47kRf0ks_VbpYgO-O93J-17" source="96" target="93" edge="1">
                    <mxGeometry relative="1" as="geometry"/>
                </mxCell>
                <mxCell id="96" value="calculate lost tracks and current tracks" style="text;html=1;align=center;verticalAlign=middle;whiteSpace=wrap;rounded=0;" parent="47kRf0ks_VbpYgO-O93J-17" vertex="1">
                    <mxGeometry x="210" y="130" width="110" height="30" as="geometry"/>
                </mxCell>
                <mxCell id="168" style="edgeStyle=none;html=1;entryX=0;entryY=0.5;entryDx=0;entryDy=0;exitX=1;exitY=0.5;exitDx=0;exitDy=0;" parent="47kRf0ks_VbpYgO-O93J-17" source="100" target="102" edge="1">
                    <mxGeometry relative="1" as="geometry"/>
                </mxCell>
                <mxCell id="169" style="edgeStyle=none;html=1;entryX=0;entryY=0.5;entryDx=0;entryDy=0;exitX=1;exitY=0.5;exitDx=0;exitDy=0;" parent="47kRf0ks_VbpYgO-O93J-17" source="100" target="HzCd7pYkylz3Iy_VyhTi-12" edge="1">
                    <mxGeometry relative="1" as="geometry"/>
                </mxCell>
                <mxCell id="100" value="current tracks&lt;div&gt;update with new face, body detections and img&lt;/div&gt;" style="text;html=1;align=center;verticalAlign=middle;whiteSpace=wrap;rounded=0;" parent="47kRf0ks_VbpYgO-O93J-17" vertex="1">
                    <mxGeometry x="300" y="240" width="155" height="70" as="geometry"/>
                </mxCell>
                <mxCell id="171" style="edgeStyle=none;html=1;entryX=1;entryY=0.25;entryDx=0;entryDy=0;" parent="47kRf0ks_VbpYgO-O93J-17" source="102" target="100" edge="1">
                    <mxGeometry relative="1" as="geometry">
                        <Array as="points">
                            <mxPoint x="590" y="275"/>
                        </Array>
                    </mxGeometry>
                </mxCell>
                <mxCell id="173" value="Returns&lt;div&gt;metadata if it is updated&lt;/div&gt;" style="edgeLabel;html=1;align=center;verticalAlign=middle;resizable=0;points=[];" parent="171" vertex="1" connectable="0">
                    <mxGeometry x="-0.1039" y="5" relative="1" as="geometry">
                        <mxPoint as="offset"/>
                    </mxGeometry>
                </mxCell>
                <mxCell id="102" value="Update&lt;div&gt;age&lt;/div&gt;&lt;div&gt;gender&lt;/div&gt;&lt;div&gt;gaze_time&lt;/div&gt;&lt;div&gt;face_img&lt;/div&gt;" style="text;html=1;align=center;verticalAlign=middle;whiteSpace=wrap;rounded=0;" parent="47kRf0ks_VbpYgO-O93J-17" vertex="1">
                    <mxGeometry x="530" y="330" width="120" height="110" as="geometry"/>
                </mxCell>
                <mxCell id="172" style="edgeStyle=none;html=1;entryX=1;entryY=0;entryDx=0;entryDy=0;" parent="47kRf0ks_VbpYgO-O93J-17" source="HzCd7pYkylz3Iy_VyhTi-12" target="100" edge="1">
                    <mxGeometry relative="1" as="geometry"/>
                </mxCell>
                <mxCell id="174" value="Returns Face ReID&lt;div&gt;If possible&lt;/div&gt;" style="edgeLabel;html=1;align=center;verticalAlign=middle;resizable=0;points=[];" parent="172" vertex="1" connectable="0">
                    <mxGeometry x="0.651" y="-4" relative="1" as="geometry">
                        <mxPoint as="offset"/>
                    </mxGeometry>
                </mxCell>
                <mxCell id="xl_rmhWgNXav408sLRde-7" style="edgeStyle=orthogonalEdgeStyle;rounded=0;orthogonalLoop=1;jettySize=auto;html=1;entryX=1;entryY=0;entryDx=0;entryDy=0;fontStyle=1" parent="47kRf0ks_VbpYgO-O93J-1" source="xl_rmhWgNXav408sLRde-6" target="91" edge="1">
                    <mxGeometry relative="1" as="geometry">
                        <mxPoint x="676.25" y="620" as="targetPoint"/>
                    </mxGeometry>
                </mxCell>
                <mxCell id="xl_rmhWgNXav408sLRde-4" value="&lt;div style=&quot;color: rgb(204, 204, 204); background-color: rgb(31, 31, 31); font-family: Monoid, &amp;quot;Source Code Pro&amp;quot;, &amp;quot;DejaVu Sans Mono&amp;quot;, &amp;quot;MesloLGS NF&amp;quot;, &amp;quot;Droid Sans Mono&amp;quot;, &amp;quot;monospace&amp;quot;, monospace, &amp;quot;Droid Sans Fallback&amp;quot;, &amp;quot;Droid Sans Mono&amp;quot;, &amp;quot;monospace&amp;quot;, monospace; font-size: 14px; line-height: 19px; white-space: pre;&quot;&gt;&lt;div&gt;&lt;span style=&quot;color: #dcdcaa;&quot;&gt;@&lt;/span&gt;&lt;span style=&quot;color: #dcdcaa;&quot;&gt;dataclass&lt;/span&gt;&lt;/div&gt;&lt;div&gt;&lt;span style=&quot;color: #569cd6;&quot;&gt;class&lt;/span&gt;&lt;span style=&quot;color: #cccccc;&quot;&gt; &lt;/span&gt;&lt;span style=&quot;color: #4ec9b0;&quot;&gt;FaceDetection&lt;/span&gt;&lt;span style=&quot;color: #cccccc;&quot;&gt;:&lt;/span&gt;&lt;/div&gt;&lt;div&gt;&lt;span style=&quot;color: #cccccc;&quot;&gt;    &lt;/span&gt;&lt;span style=&quot;color: #9cdcfe;&quot;&gt;score&lt;/span&gt;&lt;span style=&quot;color: #cccccc;&quot;&gt;: &lt;/span&gt;&lt;span style=&quot;color: #4ec9b0;&quot;&gt;float&lt;/span&gt;&lt;/div&gt;&lt;div&gt;&lt;span style=&quot;color: #cccccc;&quot;&gt;    &lt;/span&gt;&lt;span style=&quot;color: #9cdcfe;&quot;&gt;bbox&lt;/span&gt;&lt;span style=&quot;color: #cccccc;&quot;&gt;: &lt;/span&gt;&lt;span style=&quot;color: #4ec9b0;&quot;&gt;np&lt;/span&gt;&lt;span style=&quot;color: #cccccc;&quot;&gt;.&lt;/span&gt;&lt;span style=&quot;color: #4ec9b0;&quot;&gt;ndarray&lt;/span&gt;&lt;span style=&quot;color: #cccccc;&quot;&gt;  &lt;/span&gt;&lt;span style=&quot;color: #6a9955;&quot;&gt;# [x1, y1, x2, y2]&lt;/span&gt;&lt;/div&gt;&lt;div&gt;&lt;span style=&quot;color: #cccccc;&quot;&gt;    &lt;/span&gt;&lt;span style=&quot;color: #9cdcfe;&quot;&gt;age&lt;/span&gt;&lt;span style=&quot;color: #cccccc;&quot;&gt;: &lt;/span&gt;&lt;span style=&quot;color: #4ec9b0;&quot;&gt;int&lt;/span&gt;&lt;/div&gt;&lt;div&gt;&lt;span style=&quot;color: #cccccc;&quot;&gt;    &lt;/span&gt;&lt;span style=&quot;color: #9cdcfe;&quot;&gt;gender&lt;/span&gt;&lt;span style=&quot;color: #cccccc;&quot;&gt;: &lt;/span&gt;&lt;span style=&quot;color: #4ec9b0;&quot;&gt;t&lt;/span&gt;&lt;span style=&quot;color: #cccccc;&quot;&gt;.&lt;/span&gt;&lt;span style=&quot;color: #4ec9b0;&quot;&gt;Literal&lt;/span&gt;&lt;span style=&quot;color: #cccccc;&quot;&gt;[&lt;/span&gt;&lt;span style=&quot;color: #ce9178;&quot;&gt;&quot;Male&quot;&lt;/span&gt;&lt;span style=&quot;color: #cccccc;&quot;&gt;, &lt;/span&gt;&lt;span style=&quot;color: #ce9178;&quot;&gt;&quot;Female&quot;&lt;/span&gt;&lt;span style=&quot;color: #cccccc;&quot;&gt;]&lt;/span&gt;&lt;/div&gt;&lt;div&gt;&lt;span style=&quot;color: #cccccc;&quot;&gt;    &lt;/span&gt;&lt;span style=&quot;color: #9cdcfe;&quot;&gt;yaw&lt;/span&gt;&lt;span style=&quot;color: #cccccc;&quot;&gt;: &lt;/span&gt;&lt;span style=&quot;color: #4ec9b0;&quot;&gt;float&lt;/span&gt;&lt;/div&gt;&lt;div&gt;&lt;span style=&quot;color: #cccccc;&quot;&gt;    &lt;/span&gt;&lt;span style=&quot;color: #9cdcfe;&quot;&gt;pitch&lt;/span&gt;&lt;span style=&quot;color: #cccccc;&quot;&gt;: &lt;/span&gt;&lt;span style=&quot;color: #4ec9b0;&quot;&gt;float&lt;/span&gt;&lt;/div&gt;&lt;/div&gt;" style="text;html=1;align=left;verticalAlign=middle;whiteSpace=wrap;rounded=0;" parent="47kRf0ks_VbpYgO-O93J-1" vertex="1">
                    <mxGeometry x="550" y="30" width="340" height="170" as="geometry"/>
                </mxCell>
                <mxCell id="94" style="edgeStyle=none;html=1;entryX=0;entryY=0;entryDx=0;entryDy=0;fontStyle=1" parent="47kRf0ks_VbpYgO-O93J-1" source="47kRf0ks_VbpYgO-O93J-13" target="91" edge="1">
                    <mxGeometry relative="1" as="geometry"/>
                </mxCell>
                <mxCell id="95" style="edgeStyle=none;html=1;entryX=0.25;entryY=0;entryDx=0;entryDy=0;fontStyle=1" parent="47kRf0ks_VbpYgO-O93J-1" source="47kRf0ks_VbpYgO-O93J-15" target="91" edge="1">
                    <mxGeometry relative="1" as="geometry"/>
                </mxCell>
                <mxCell id="8" value="" style="rounded=0;whiteSpace=wrap;html=1;container=1;fillColor=none;recursiveResize=0;pointerEvents=0;" parent="1" vertex="1">
                    <mxGeometry x="-1430" y="150" width="1190" height="470" as="geometry"/>
                </mxCell>
                <mxCell id="38" value="Web UI" style="text;html=1;align=center;verticalAlign=middle;whiteSpace=wrap;rounded=0;" parent="8" vertex="1">
                    <mxGeometry x="10" y="20" width="90" height="30" as="geometry"/>
                </mxCell>
                <mxCell id="39" value="" style="rounded=0;whiteSpace=wrap;html=1;container=1;fillColor=none;recursiveResize=0;pointerEvents=0;" parent="8" vertex="1">
                    <mxGeometry x="20" y="60" width="380" height="390" as="geometry"/>
                </mxCell>
                <mxCell id="40" value="frontend&lt;div&gt;&lt;span style=&quot;color: rgb(0, 0, 0);&quot;&gt;./scripts/webui&lt;/span&gt;&lt;/div&gt;" style="text;html=1;align=center;verticalAlign=middle;whiteSpace=wrap;rounded=0;" parent="39" vertex="1">
                    <mxGeometry x="10" y="20" width="90" height="30" as="geometry"/>
                </mxCell>
                <mxCell id="42" value="JS + Node/NPM" style="text;html=1;align=center;verticalAlign=middle;whiteSpace=wrap;rounded=0;" parent="39" vertex="1">
                    <mxGeometry x="5" y="80" width="100" height="30" as="geometry"/>
                </mxCell>
                <mxCell id="45" style="edgeStyle=none;html=1;entryX=0;entryY=0.5;entryDx=0;entryDy=0;fontStyle=1" parent="39" source="43" target="44" edge="1">
                    <mxGeometry relative="1" as="geometry"/>
                </mxCell>
                <mxCell id="43" value="svelte + sveltekit" style="text;html=1;align=center;verticalAlign=middle;whiteSpace=wrap;rounded=0;" parent="39" vertex="1">
                    <mxGeometry x="5" y="140" width="100" height="30" as="geometry"/>
                </mxCell>
                <mxCell id="44" value="webpages&lt;br&gt;src/routes/" style="text;html=1;align=center;verticalAlign=middle;whiteSpace=wrap;rounded=0;" parent="39" vertex="1">
                    <mxGeometry x="150" y="140" width="100" height="30" as="geometry"/>
                </mxCell>
                <mxCell id="46" value="demo" style="text;html=1;align=center;verticalAlign=middle;whiteSpace=wrap;rounded=0;" parent="39" vertex="1">
                    <mxGeometry x="250" y="210" width="100" height="30" as="geometry"/>
                </mxCell>
                <mxCell id="47" value="config" style="text;html=1;align=center;verticalAlign=middle;whiteSpace=wrap;rounded=0;" parent="39" vertex="1">
                    <mxGeometry x="250" y="260" width="100" height="30" as="geometry"/>
                </mxCell>
                <mxCell id="48" value="CameraConfig" style="text;html=1;align=center;verticalAlign=middle;whiteSpace=wrap;rounded=0;" parent="39" vertex="1">
                    <mxGeometry x="250" y="320" width="100" height="30" as="geometry"/>
                </mxCell>
                <mxCell id="49" value="" style="rounded=0;whiteSpace=wrap;html=1;container=1;fillColor=none;recursiveResize=0;pointerEvents=0;" parent="8" vertex="1">
                    <mxGeometry x="750" y="60" width="380" height="390" as="geometry"/>
                </mxCell>
                <mxCell id="58" value="sdk" style="text;html=1;align=center;verticalAlign=middle;whiteSpace=wrap;rounded=0;" parent="49" vertex="1">
                    <mxGeometry x="270" y="10" width="100" height="30" as="geometry"/>
                </mxCell>
                <mxCell id="62" style="edgeStyle=none;html=1;fontStyle=1" parent="49" source="59" target="60" edge="1">
                    <mxGeometry relative="1" as="geometry"/>
                </mxCell>
                <mxCell id="86" value="Inference Frames" style="edgeLabel;html=1;align=center;verticalAlign=middle;resizable=0;points=[];" parent="62" vertex="1" connectable="0">
                    <mxGeometry x="0.0207" y="-2" relative="1" as="geometry">
                        <mxPoint as="offset"/>
                    </mxGeometry>
                </mxCell>
                <mxCell id="59" value="sdk cam" style="text;html=1;align=center;verticalAlign=middle;whiteSpace=wrap;rounded=0;" parent="49" vertex="1">
                    <mxGeometry x="90" y="10" width="100" height="30" as="geometry"/>
                </mxCell>
                <mxCell id="68" style="edgeStyle=none;html=1;entryX=0.5;entryY=0;entryDx=0;entryDy=0;fontStyle=1" parent="49" source="60" target="67" edge="1">
                    <mxGeometry relative="1" as="geometry"/>
                </mxCell>
                <mxCell id="87" value="PostProcessing" style="edgeLabel;html=1;align=center;verticalAlign=middle;resizable=0;points=[];" parent="68" vertex="1" connectable="0">
                    <mxGeometry x="-0.4586" y="-2" relative="1" as="geometry">
                        <mxPoint as="offset"/>
                    </mxGeometry>
                </mxCell>
                <mxCell id="60" value="DemoPipeline" style="text;html=1;align=center;verticalAlign=middle;whiteSpace=wrap;rounded=0;" parent="49" vertex="1">
                    <mxGeometry x="90" y="120" width="100" height="30" as="geometry"/>
                </mxCell>
                <mxCell id="61" value="python" style="text;html=1;align=center;verticalAlign=middle;whiteSpace=wrap;rounded=0;" parent="49" vertex="1">
                    <mxGeometry x="270" y="50" width="100" height="30" as="geometry"/>
                </mxCell>
                <mxCell id="72" style="edgeStyle=none;html=1;fontStyle=1" parent="49" source="67" target="70" edge="1">
                    <mxGeometry relative="1" as="geometry"/>
                </mxCell>
                <mxCell id="67" value="Serialise Metadata" style="text;html=1;align=center;verticalAlign=middle;whiteSpace=wrap;rounded=0;" parent="49" vertex="1">
                    <mxGeometry x="90" y="190" width="100" height="30" as="geometry"/>
                </mxCell>
                <mxCell id="69" value="Frame" style="text;html=1;align=center;verticalAlign=middle;whiteSpace=wrap;rounded=0;" parent="49" vertex="1">
                    <mxGeometry x="60" y="250" width="100" height="30" as="geometry"/>
                </mxCell>
                <mxCell id="70" value="Metadata" style="text;html=1;align=center;verticalAlign=middle;whiteSpace=wrap;rounded=0;" parent="49" vertex="1">
                    <mxGeometry x="180" y="250" width="100" height="30" as="geometry"/>
                </mxCell>
                <mxCell id="71" style="edgeStyle=none;html=1;entryX=0.631;entryY=0.039;entryDx=0;entryDy=0;entryPerimeter=0;fontStyle=1" parent="49" source="67" target="69" edge="1">
                    <mxGeometry relative="1" as="geometry"/>
                </mxCell>
                <mxCell id="84" value="" style="endArrow=classic;html=1;exitX=0;exitY=0;exitDx=0;exitDy=0;fontStyle=1" parent="49" source="70" edge="1">
                    <mxGeometry width="50" height="50" relative="1" as="geometry">
                        <mxPoint x="136" y="235" as="sourcePoint"/>
                        <mxPoint x="-40" y="175" as="targetPoint"/>
                    </mxGeometry>
                </mxCell>
                <mxCell id="85" value="Send Data" style="edgeLabel;html=1;align=center;verticalAlign=middle;resizable=0;points=[];" parent="84" vertex="1" connectable="0">
                    <mxGeometry x="0.2195" y="1" relative="1" as="geometry">
                        <mxPoint as="offset"/>
                    </mxGeometry>
                </mxCell>
                <mxCell id="63" style="edgeStyle=none;html=1;entryX=0;entryY=0;entryDx=0;entryDy=0;fontStyle=1" parent="8" source="46" target="60" edge="1">
                    <mxGeometry relative="1" as="geometry"/>
                </mxCell>
                <mxCell id="66" value="Start Demo" style="edgeLabel;html=1;align=center;verticalAlign=middle;resizable=0;points=[];" parent="63" vertex="1" connectable="0">
                    <mxGeometry x="-0.0934" relative="1" as="geometry">
                        <mxPoint as="offset"/>
                    </mxGeometry>
                </mxCell>
                <mxCell id="73" style="edgeStyle=none;html=1;entryX=0;entryY=1;entryDx=0;entryDy=0;exitX=1;exitY=1;exitDx=0;exitDy=0;endArrow=classic;endFill=1;startArrow=classic;startFill=1;fontStyle=1" parent="8" source="46" target="60" edge="1">
                    <mxGeometry relative="1" as="geometry"/>
                </mxCell>
                <mxCell id="74" value="SocketIO" style="edgeLabel;html=1;align=center;verticalAlign=middle;resizable=0;points=[];" parent="73" vertex="1" connectable="0">
                    <mxGeometry x="-0.0263" y="-3" relative="1" as="geometry">
                        <mxPoint as="offset"/>
                    </mxGeometry>
                </mxCell>
                <mxCell id="79" value="" style="endArrow=classic;html=1;fontStyle=1" parent="1" source="69" edge="1">
                    <mxGeometry width="50" height="50" relative="1" as="geometry">
                        <mxPoint x="-760" y="480" as="sourcePoint"/>
                        <mxPoint x="-790" y="400" as="targetPoint"/>
                    </mxGeometry>
                </mxCell>
                <mxCell id="83" value="Send Data" style="edgeLabel;html=1;align=center;verticalAlign=middle;resizable=0;points=[];" parent="79" vertex="1" connectable="0">
                    <mxGeometry x="0.2195" y="1" relative="1" as="geometry">
                        <mxPoint as="offset"/>
                    </mxGeometry>
                </mxCell>
                <mxCell id="115" value="" style="rounded=0;whiteSpace=wrap;html=1;container=1;fillColor=none;recursiveResize=0;pointerEvents=0;" parent="1" vertex="1">
                    <mxGeometry x="-1440" y="830" width="970" height="610" as="geometry"/>
                </mxCell>
                <mxCell id="117" value="sdk/cam.py" style="text;html=1;align=center;verticalAlign=middle;whiteSpace=wrap;rounded=0;" parent="115" vertex="1">
                    <mxGeometry x="15" y="25" width="120" height="20" as="geometry"/>
                </mxCell>
                <mxCell id="136" style="edgeStyle=none;html=1;" parent="115" source="134" target="135" edge="1">
                    <mxGeometry relative="1" as="geometry"/>
                </mxCell>
                <mxCell id="134" value="Cam Object" style="text;html=1;align=center;verticalAlign=middle;whiteSpace=wrap;rounded=0;" parent="115" vertex="1">
                    <mxGeometry x="30" y="85" width="120" height="20" as="geometry"/>
                </mxCell>
                <mxCell id="138" style="edgeStyle=none;html=1;" parent="115" source="135" target="137" edge="1">
                    <mxGeometry relative="1" as="geometry"/>
                </mxCell>
                <mxCell id="135" value="Creates IMX500 (AI module)&lt;div&gt;Create PiCamera2 Camera&lt;/div&gt;&lt;div&gt;Takes in config params&lt;/div&gt;" style="text;html=1;align=center;verticalAlign=middle;whiteSpace=wrap;rounded=0;" parent="115" vertex="1">
                    <mxGeometry x="15" y="130" width="240" height="70" as="geometry"/>
                </mxCell>
                <mxCell id="137" value="Loads model network.rpk file to the IMX500&lt;div&gt;Configure Camera controls&lt;/div&gt;&lt;div&gt;Create camera even loop thread&lt;/div&gt;&lt;div&gt;Create data queue for DemoPipeline&lt;/div&gt;" style="text;html=1;align=center;verticalAlign=middle;whiteSpace=wrap;rounded=0;" parent="115" vertex="1">
                    <mxGeometry x="15" y="230" width="240" height="70" as="geometry"/>
                </mxCell>
                <mxCell id="143" style="edgeStyle=none;html=1;" parent="115" source="139" target="142" edge="1">
                    <mxGeometry relative="1" as="geometry"/>
                </mxCell>
                <mxCell id="139" value="Camera event loop" style="text;html=1;align=center;verticalAlign=middle;whiteSpace=wrap;rounded=0;" parent="115" vertex="1">
                    <mxGeometry x="15" y="350" width="225" height="30" as="geometry"/>
                </mxCell>
                <mxCell id="145" style="edgeStyle=none;html=1;entryX=0.5;entryY=0;entryDx=0;entryDy=0;" parent="115" source="142" target="144" edge="1">
                    <mxGeometry relative="1" as="geometry"/>
                </mxCell>
                <mxCell id="142" value="get latest frame from camera(PiCamera2)&lt;div&gt;runs at 30 fps(33 ms per frame)&lt;/div&gt;" style="text;html=1;align=center;verticalAlign=middle;whiteSpace=wrap;rounded=0;" parent="115" vertex="1">
                    <mxGeometry x="35" y="410" width="305" height="40" as="geometry"/>
                </mxCell>
                <mxCell id="146" style="edgeStyle=none;html=1;entryX=1;entryY=0.5;entryDx=0;entryDy=0;" parent="115" source="144" target="142" edge="1">
                    <mxGeometry relative="1" as="geometry">
                        <Array as="points">
                            <mxPoint x="440" y="460"/>
                        </Array>
                    </mxGeometry>
                </mxCell>
                <mxCell id="147" value="If no inference data&lt;div&gt;Wait for the next frame&lt;/div&gt;&lt;div&gt;(infinite loop)&lt;/div&gt;" style="edgeLabel;html=1;align=center;verticalAlign=middle;resizable=0;points=[];" parent="146" vertex="1" connectable="0">
                    <mxGeometry x="-0.4515" y="1" relative="1" as="geometry">
                        <mxPoint as="offset"/>
                    </mxGeometry>
                </mxCell>
                <mxCell id="144" value="check if frame has inference data attached" style="text;html=1;align=center;verticalAlign=middle;whiteSpace=wrap;rounded=0;" parent="115" vertex="1">
                    <mxGeometry x="95" y="480" width="185" height="40" as="geometry"/>
                </mxCell>
                <mxCell id="151" style="edgeStyle=none;html=1;" parent="115" source="148" target="150" edge="1">
                    <mxGeometry relative="1" as="geometry"/>
                </mxCell>
                <mxCell id="148" value="inference data&lt;div&gt;10 fps (100ms per frame)&lt;/div&gt;" style="text;html=1;align=center;verticalAlign=middle;whiteSpace=wrap;rounded=0;" parent="115" vertex="1">
                    <mxGeometry x="95" y="540" width="185" height="40" as="geometry"/>
                </mxCell>
                <mxCell id="149" style="edgeStyle=none;html=1;entryX=0.534;entryY=0.077;entryDx=0;entryDy=0;entryPerimeter=0;" parent="115" source="144" target="148" edge="1">
                    <mxGeometry relative="1" as="geometry"/>
                </mxCell>
                <mxCell id="153" style="edgeStyle=none;html=1;entryX=0.5;entryY=1;entryDx=0;entryDy=0;" parent="115" source="150" target="152" edge="1">
                    <mxGeometry relative="1" as="geometry"/>
                </mxCell>
                <mxCell id="154" value="Pass data into the queue to&lt;div&gt;not block the camera loop&lt;/div&gt;" style="edgeLabel;html=1;align=center;verticalAlign=middle;resizable=0;points=[];" parent="153" vertex="1" connectable="0">
                    <mxGeometry x="0.0623" y="-2" relative="1" as="geometry">
                        <mxPoint as="offset"/>
                    </mxGeometry>
                </mxCell>
                <mxCell id="155" style="edgeStyle=none;html=1;entryX=1;entryY=0.25;entryDx=0;entryDy=0;exitX=0.75;exitY=0;exitDx=0;exitDy=0;" parent="115" source="150" target="142" edge="1">
                    <mxGeometry relative="1" as="geometry">
                        <Array as="points">
                            <mxPoint x="520" y="460"/>
                        </Array>
                    </mxGeometry>
                </mxCell>
                <mxCell id="156" value="Loop back&lt;div&gt;next frame&lt;/div&gt;" style="edgeLabel;html=1;align=center;verticalAlign=middle;resizable=0;points=[];" parent="155" vertex="1" connectable="0">
                    <mxGeometry x="0.2633" relative="1" as="geometry">
                        <mxPoint as="offset"/>
                    </mxGeometry>
                </mxCell>
                <mxCell id="150" value="request img data&lt;div&gt;request output tensors&lt;/div&gt;&lt;div&gt;request camera metadata(IMX500 data registers)&lt;/div&gt;" style="text;html=1;align=center;verticalAlign=middle;whiteSpace=wrap;rounded=0;" parent="115" vertex="1">
                    <mxGeometry x="300" y="530" width="310" height="60" as="geometry"/>
                </mxCell>
                <mxCell id="161" style="edgeStyle=none;html=1;entryX=0.25;entryY=1;entryDx=0;entryDy=0;" parent="115" source="152" target="158" edge="1">
                    <mxGeometry relative="1" as="geometry"/>
                </mxCell>
                <mxCell id="152" value="process_inference_data_queue" style="text;html=1;align=center;verticalAlign=middle;whiteSpace=wrap;rounded=0;" parent="115" vertex="1">
                    <mxGeometry x="380" y="200" width="220" height="40" as="geometry"/>
                </mxCell>
                <mxCell id="160" style="edgeStyle=none;html=1;entryX=0.5;entryY=0;entryDx=0;entryDy=0;" parent="115" source="158" target="159" edge="1">
                    <mxGeometry relative="1" as="geometry"/>
                </mxCell>
                <mxCell id="158" value="process_inference_data_queue_thread" style="text;html=1;align=center;verticalAlign=middle;whiteSpace=wrap;rounded=0;" parent="115" vertex="1">
                    <mxGeometry x="680" y="30" width="230" height="40" as="geometry"/>
                </mxCell>
                <mxCell id="163" style="edgeStyle=none;html=1;" parent="115" source="159" target="162" edge="1">
                    <mxGeometry relative="1" as="geometry"/>
                </mxCell>
                <mxCell id="159" value="Takes data from the queue&lt;div&gt;If the queue length is larger than limit&lt;/div&gt;&lt;div&gt;Skips old data, since the previous few DemoPipeline runs were probably too slow (longer than 100ms, stacking over frames)&lt;/div&gt;" style="text;html=1;align=center;verticalAlign=middle;whiteSpace=wrap;rounded=0;" parent="115" vertex="1">
                    <mxGeometry x="660" y="150" width="270" height="90" as="geometry"/>
                </mxCell>
                <mxCell id="162" value="Profiling work done on running the DemoPipeline&lt;div&gt;Run the DemoPipeline with the img and output tensors&lt;/div&gt;" style="text;html=1;align=center;verticalAlign=middle;whiteSpace=wrap;rounded=0;" parent="115" vertex="1">
                    <mxGeometry x="660" y="290" width="270" height="90" as="geometry"/>
                </mxCell>
                <mxCell id="141" style="edgeStyle=none;html=1;entryX=0;entryY=0.5;entryDx=0;entryDy=0;" parent="1" source="140" target="139" edge="1">
                    <mxGeometry relative="1" as="geometry"/>
                </mxCell>
                <mxCell id="140" value="Camera event loop" style="text;html=1;align=center;verticalAlign=middle;whiteSpace=wrap;rounded=0;" parent="1" vertex="1">
                    <mxGeometry x="-1680" y="1230" width="135" height="30" as="geometry"/>
                </mxCell>
                <mxCell id="166" style="edgeStyle=none;html=1;entryX=1;entryY=0.5;entryDx=0;entryDy=0;" parent="1" source="164" target="60" edge="1">
                    <mxGeometry relative="1" as="geometry">
                        <Array as="points">
                            <mxPoint x="-240" y="670"/>
                        </Array>
                    </mxGeometry>
                </mxCell>
                <mxCell id="167" style="edgeStyle=none;html=1;entryX=0;entryY=0;entryDx=0;entryDy=0;" parent="1" source="164" target="47kRf0ks_VbpYgO-O93J-4" edge="1">
                    <mxGeometry relative="1" as="geometry">
                        <Array as="points">
                            <mxPoint x="-210" y="680"/>
                        </Array>
                    </mxGeometry>
                </mxCell>
                <mxCell id="164" value="sdk/base_pipeline.py&lt;div&gt;Which ever function is called based on the scripts&lt;/div&gt;" style="text;html=1;align=center;verticalAlign=middle;whiteSpace=wrap;rounded=0;" parent="1" vertex="1">
                    <mxGeometry x="-400" y="1120" width="270" height="90" as="geometry"/>
                </mxCell>
                <mxCell id="165" style="edgeStyle=none;html=1;entryX=0;entryY=0.5;entryDx=0;entryDy=0;" parent="1" source="162" target="164" edge="1">
                    <mxGeometry relative="1" as="geometry"/>
                </mxCell>
                <mxCell id="175" value="" style="rounded=0;whiteSpace=wrap;html=1;container=1;fillColor=none;recursiveResize=0;pointerEvents=0;" vertex="1" parent="1">
                    <mxGeometry x="-2630" y="150" width="390" height="320" as="geometry"/>
                </mxCell>
                <mxCell id="176" value="What happens when running a &quot;script&quot;" style="text;html=1;align=center;verticalAlign=middle;whiteSpace=wrap;rounded=0;" vertex="1" parent="175">
                    <mxGeometry x="15" y="25" width="215" height="20" as="geometry"/>
                </mxCell>
                <mxCell id="206" style="edgeStyle=none;html=1;" edge="1" parent="175" source="204" target="205">
                    <mxGeometry relative="1" as="geometry"/>
                </mxCell>
                <mxCell id="207" value="python scripts/script_name" style="edgeLabel;html=1;align=center;verticalAlign=middle;resizable=0;points=[];" vertex="1" connectable="0" parent="206">
                    <mxGeometry x="0.0412" y="-1" relative="1" as="geometry">
                        <mxPoint as="offset"/>
                    </mxGeometry>
                </mxCell>
                <mxCell id="204" value="run &quot;script&quot; with a demo (gazev3)" style="text;html=1;align=center;verticalAlign=middle;whiteSpace=wrap;rounded=0;" vertex="1" parent="175">
                    <mxGeometry x="15" y="100" width="215" height="20" as="geometry"/>
                </mxCell>
                <mxCell id="209" style="edgeStyle=none;html=1;" edge="1" parent="175" source="205" target="208">
                    <mxGeometry relative="1" as="geometry"/>
                </mxCell>
                <mxCell id="213" style="edgeStyle=none;html=1;" edge="1" parent="175" source="205" target="212">
                    <mxGeometry relative="1" as="geometry"/>
                </mxCell>
                <mxCell id="205" value="run &quot;script&quot; with a demo (gazev3)" style="text;html=1;align=center;verticalAlign=middle;whiteSpace=wrap;rounded=0;" vertex="1" parent="175">
                    <mxGeometry x="15" y="170" width="215" height="20" as="geometry"/>
                </mxCell>
                <mxCell id="211" style="edgeStyle=none;html=1;entryX=0.5;entryY=0;entryDx=0;entryDy=0;" edge="1" parent="175" source="208" target="210">
                    <mxGeometry relative="1" as="geometry"/>
                </mxCell>
                <mxCell id="208" value="config.yaml" style="text;html=1;align=center;verticalAlign=middle;whiteSpace=wrap;rounded=0;" vertex="1" parent="175">
                    <mxGeometry x="260" y="170" width="100" height="20" as="geometry"/>
                </mxCell>
                <mxCell id="214" style="edgeStyle=none;html=1;" edge="1" parent="175" source="210" target="212">
                    <mxGeometry relative="1" as="geometry"/>
                </mxCell>
                <mxCell id="210" value="helper&lt;div&gt;config loader&lt;/div&gt;" style="text;html=1;align=center;verticalAlign=middle;whiteSpace=wrap;rounded=0;" vertex="1" parent="175">
                    <mxGeometry x="260" y="220" width="100" height="30" as="geometry"/>
                </mxCell>
                <mxCell id="216" style="edgeStyle=none;html=1;entryX=0.5;entryY=0;entryDx=0;entryDy=0;" edge="1" parent="175" source="212" target="215">
                    <mxGeometry relative="1" as="geometry"/>
                </mxCell>
                <mxCell id="212" value="initialize the demo and SDK camera" style="text;html=1;align=center;verticalAlign=middle;whiteSpace=wrap;rounded=0;" vertex="1" parent="175">
                    <mxGeometry x="15" y="225" width="215" height="20" as="geometry"/>
                </mxCell>
                <mxCell id="215" value="run demo" style="text;html=1;align=center;verticalAlign=middle;whiteSpace=wrap;rounded=0;" vertex="1" parent="175">
                    <mxGeometry x="15" y="270" width="215" height="20" as="geometry"/>
                </mxCell>
            </root>
        </mxGraphModel>
    </diagram>
</mxfile>
